<svg version="1.0" xmlns="http://www.w3.org/2000/svg" width="32" height="32" viewBox="0 0 24 24"><path d="M11.328 3.749C9.456 3.917 7.502 4.8 6.173 6.091a10.301 10.301 0 0 0-1.43 1.81 9.352 9.352 0 0 0-.946 2.429c-.59 2.731.322 5.63 2.4 7.651.25.24.518.475.595.528.082.048.317.211.528.36.95.667 2.453 1.234 3.686 1.387.672.086 1.987.038 2.602-.096 1.157-.245 2.405-.782 3.288-1.416a8.901 8.901 0 0 0 2.726-3.312 8.86 8.86 0 0 0 .734-2.818c.144-1.565-.298-3.413-1.128-4.742-.538-.859-1.56-2.016-2.141-2.414-.797-.552-1.032-.696-1.416-.874-1.051-.494-1.958-.749-2.976-.835a5.437 5.437 0 0 0-1.368 0zm1.781 1.411c.96.168 2.165.648 2.827 1.128l.264.192H12c-4.195 0-4.2 0-4.08-.096.197-.158.816-.514 1.2-.691a9.754 9.754 0 0 1 1.79-.533c.48-.086 1.704-.086 2.198 0zm3.485 2.429a1.128 1.128 0 0 1 .341.274l.13.168.014 2.957c.01 2.885.01 2.962-.086 3.115a.883.883 0 0 1-.25.25c-.149.091-.245.096-1.464.096h-1.301l-.058.173a1.006 1.006 0 0 1-.211.322 2.437 2.437 0 0 0-.283.379l-.134.23h1.747c1.45 0 1.786-.014 1.997-.077.341-.101.677-.418.883-.83l.154-.317.024-2.875.024-2.88.178.384c.778 1.666.898 3.336.374 5.107a6.104 6.104 0 0 1-.907 1.858c-.499.73-1.565 1.786-1.627 1.608-.019-.067-.259-.202-.365-.202a.746.746 0 0 0-.192.043c-.115.048-.115.048-.048.302.034.139.067.259.067.264 0 .019-.374.254-.403.254a.896.896 0 0 1-.048-.254 1.624 1.624 0 0 0-.821-1.2c-.187-.101-.25-.106-2.251-.12-2.395-.014-2.414-.014-2.822.384a1.475 1.475 0 0 0-.456.902c-.014.134-.038.24-.053.24-.048 0-.394-.211-.394-.245 0-.014.034-.125.072-.235.096-.274.096-.274-.115-.312-.192-.034-.485.072-.485.173 0 .096-.226-.077-.691-.528-.806-.787-1.363-1.613-1.68-2.491-.504-1.406-.59-2.779-.264-4.114.115-.475.398-1.267.566-1.584l.125-.24.024 2.904.024 2.904.13.264c.182.36.446.648.734.778.235.106.283.11 2.006.125a39.296 39.296 0 0 0 1.761-.005c0-.091-.235-.47-.36-.571a.997.997 0 0 1-.235-.326l-.077-.192H8.626c-1.238 0-1.272-.005-1.43-.11-.341-.226-.331-.11-.331-3.312 0-2.765.005-2.875.096-3.058a.944.944 0 0 1 .485-.427c.072-.029 1.882-.048 4.526-.048 4.392-.005 4.416-.005 4.622.096z"/><path d="m9.341 8.266-.456.998a13.352 13.352 0 0 0-.341.778c0 .024-.202.485-.446 1.037a57.553 57.553 0 0 0-.706 1.632c-.317.778-.322.768.346.744.245-.005.514-.014.595-.014.139 0 .158-.024.298-.35l.144-.346.586-.024.59-.024.072-.226c.096-.312.528-.816.869-1.013.23-.139.725-.355.955-.422.038-.014.005-.125-.115-.379a7.742 7.742 0 0 1-.235-.528 31.914 31.914 0 0 0-.821-1.8l-.144-.288-.542-.014-.538-.014-.11.254zm.893 2.088c.125.288.269.624.317.758.053.13.11.278.13.322.034.082-.019.086-.672.086h-.706l.024-.11c.058-.245.61-1.565.658-1.57.014 0 .125.23.25.514zm2.371-2.266c-.014.043-.029.725-.029 1.512v1.43l.254.082c.254.082.706.379.706.466 0 .072-.13.182-.168.144-.067-.058.034.096.221.35.298.403.346.538.365.984l.014.408.226-.014c.307-.024.758-.139.994-.259.283-.144.461-.288.427-.341-.014-.029-.005-.034.024-.014.072.043.461-.365.634-.667.336-.59.442-1.536.245-2.242a2.566 2.566 0 0 0-1.642-1.771c-.274-.101-.413-.115-1.272-.13-.864-.014-.97-.01-.998.062zm2.059 1.397c.235.12.48.432.562.706.034.11.058.389.062.614 0 .365-.014.442-.144.691-.211.413-.451.571-.912.59l-.355.019-.014-1.315a28.813 28.813 0 0 1 0-1.387c.019-.101.557-.043.802.082z"/><path d="M11.928 11.429c-.432.115-.936.418-1.123.677a1.416 1.416 0 0 1-.211.226c-.211.154-.293.744-.173 1.229.043.173.038.23-.024.322-.163.23-.024.854.187.854.043 0 .101.058.13.13.034.077.13.25.216.389.13.202.158.302.158.509s.019.264.086.278c.043.01.437.01.874-.005l.792-.029.024-.293c.029-.35.312-.97.442-.974.245-.01.365-.682.158-.883-.053-.053-.053-.12.01-.374.173-.744-.134-1.325-.787-1.493-.115-.029-.206-.067-.206-.086 0-.062.451-.432.528-.432.048 0 .053-.014.019-.048-.106-.106-.696-.101-1.099.005z"/>
<style>
  path {
  fill: orange
  }
</style>
</svg>